<svg width="700" height="340" viewBox="0 0 700 340" xmlns="http://www.w3.org/2000/svg">
  <defs>
    <linearGradient id="bg" x1="0" y1="0" x2="1" y2="1">
      <stop offset="0%" stop-color="#0F172A"/>
      <stop offset="100%" stop-color="#020617"/>
    </linearGradient>
    <linearGradient id="accent" x1="0" y1="0" x2="1" y2="1">
      <stop offset="0%" stop-color="#38BDF8"/>
      <stop offset="100%" stop-color="#8B5CF6"/>
    </linearGradient>
  </defs>

  <rect width="700" height="340" rx="28" fill="url(#bg)"/>
  <rect x="25" y="25" width="650" height="290" rx="20" fill="#111827" stroke="#334155"/>

  <circle cx="60" cy="60" r="8" fill="#EF4444"/>
  <circle cx="84" cy="60" r="8" fill="#F59E0B"/>
  <circle cx="108" cy="60" r="8" fill="#22C55E"/>

  <text x="135" y="66" font-size="17" fill="#94A3B8" font-family="Consolas">project.json</text>

  <text x="55" y="120" font-size="38" font-weight="700" fill="white" font-family="Segoe UI">ProdX</text>

  <text x="55" y="160" font-size="20" fill="#94A3B8" font-family="Segoe UI">Data-driven Product Analytics Platform</text>
  <text x="55" y="190" font-size="20" fill="#94A3B8" font-family="Segoe UI">for experiments, dashboards and decisions.</text>

  <rect x="55" y="245" width="90" height="34" rx="17" fill="#1E293B"/>
  <text x="80" y="267" fill="white" font-size="15" font-family="Segoe UI">Python</text>

  <rect x="160" y="245" width="70" height="34" rx="17" fill="#1E293B"/>
  <text x="182" y="267" fill="white" font-size="15" font-family="Segoe UI">SQL</text>

  <rect x="240" y="245" width="110" height="34" rx="17" fill="#1E293B"/>
  <text x="259" y="267" fill="white" font-size="15" font-family="Segoe UI">Power BI</text>

  <rect x="360" y="245" width="95" height="34" rx="17" fill="#1E293B"/>
  <text x="379" y="267" fill="white" font-size="15" font-family="Segoe UI">Analytics</text>

  <rect x="560" y="240" width="90" height="40" rx="20" fill="url(#accent)"/>
  <text x="583" y="266" font-size="16" fill="white" font-family="Segoe UI">OPEN</text>
</svg>
